#!OML:ASF E:\emotionWalksFemale\Project 1\Capture day 1\Session 1\Female1.ASF
:FULLY-SPECIFIED
:DEGREES
657
root 9.05275 15.5004 19.029 359.593 3.57273 -361.136
lowerback 10.3728 0.893107 0.45177
upperback -3.6622 1.30942 0.498561
thorax -9.75926 0.621693 0.0350358
lowerneck -7.18585 -4.82128 -8.93243
upperneck 10.7601 -6.42513 8.04413
head 4.95345 -3.05298 3.52662
rclavicle -1.69852e-014 1.01877e-015
rhumerus -39.2687 6.22607 -83.9921
rradius 35.3068
rwrist 22.9905
rhand -2.85972 -56.5846
rfingers 7.12502
rthumb 22.8486 634.749
lclavicle -1.69852e-014 1.01877e-015
lhumerus -39.5547 -4.0446 87.0045
lradius 35.0392
lwrist -16.3131
lhand -1.32928 -33.1483
lfingers 7.12502
lthumb 24.3166 -4.67067
rfemur -0.216749 19.0072 28.0115
rtibia 18.5239
rfoot -15.3358 -29.4168
rtoes -3.42134
lfemur -4.29667 -21.9717 -25.8306
ltibia 23.2103
lfoot -22.8866 22.1378
ltoes -23.7857
658
root 9.0502 15.4965 19.03 359.601 3.70294 -361.032
lowerback 10.3315 0.911395 0.40572
upperback -3.68116 1.32131 0.434379
thorax -9.75519 0.627982 -0.00937834
lowerneck -7.13132 -4.89742 -8.97504
upperneck 10.8951 -6.53845 8.06717
head 4.99787 -3.10979 3.53283
rclavicle 5.0395e-016 1.06847e-015
rhumerus -39.0274 6.31758 -83.8875
rradius 35.3238
rwrist 23.1166
rhand -3.41411 -56.3587
rfingers 7.12502
rthumb 22.3165 634.91
lclavicle 5.0395e-016 1.06847e-015
lhumerus -39.4318 -3.74792 86.6885
lradius 35.348
lwrist -15.4719
lhand -0.426719 -32.9441
lfingers 7.12502
lthumb 25.1816 -4.5853
rfemur -0.211402 18.8594 27.8839
rtibia 18.5776
rfoot -15.6121 -29.2956
rtoes -2.54331
lfemur -4.25884 -22.1249 -25.9514
ltibia 23.1612
lfoot -22.8946 22.0606
ltoes -23.3948
659
root 9.04359 15.4936 19.0351 359.535 3.8243 -361.059
lowerback 10.3366 0.954793 0.461517
upperback -3.68939 1.38449 0.40036
thorax -9.76493 0.653683 -0.0890907
lowerneck -7.30077 -5.0199 -8.91178
upperneck 11.2393 -6.69675 7.90089
head 5.13899 -3.18969 3.45323
rclavicle 9.7486e-015 -4.16205e-015
rhumerus -38.8628 6.2364 -83.7594
rradius 35.4712
rwrist 22.9892
rhand -4.06621 -56.2996
rfingers 7.12502
rthumb 21.6904 634.895
lclavicle 9.7486e-015 -4.16205e-015
lhumerus -39.2902 -3.56632 86.4116
lradius 35.4736
lwrist -14.8409
lhand -0.355704 -32.9455
lfingers 7.12502
lthumb 25.2496 -4.59627
rfemur -0.112037 18.7983 27.9649
rtibia 18.6302
rfoot -15.8511 -29.3341
rtoes -1.52884
lfemur -4.14132 -22.2245 -25.931
ltibia 23.1087
lfoot -23.0604 21.838
ltoes -22.5085
660
root 9.03643 15.4955 19.0395 359.444 3.97169 -361.049
lowerback 10.4245 1.00072 0.518441
upperback -3.71475 1.44902 0.333107
thorax -9.84128 0.678248 -0.207085
lowerneck -7.81711 -5.1387 -8.65297
upperneck 11.9739 -6.83789 7.51253
head 5.44418 -3.25792 3.26411
rclavicle 5.33457e-016 -1.04735e-014
rhumerus -38.7624 6.17477 -83.6735
rradius 35.6646
rwrist 22.6994
rhand -4.21982 -56.4069
rfingers 7.12502
rthumb 21.5429 634.771
lclavicle 5.33457e-016 -1.04735e-014
lhumerus -39.2544 -3.54348 86.186
lradius 35.6402
lwrist -14.4592
lhand -0.630989 -32.9071
lfingers 7.12502
lthumb 24.9859 -4.5209
rfemur 0.00991898 18.8335 28.0223
rtibia 18.6371
rfoot -16.1018 -29.4458
rtoes -0.0363778
lfemur -3.9931 -22.2473 -25.9571
ltibia 23.0834
lfoot -23.1008 21.7899
ltoes -22.83
661
root 9.03083 15.4984 19.0395 359.444 4.15665 -360.997
lowerback 10.4483 1.00034 0.501426
upperback -3.74938 1.44208 0.284682
thorax -9.8926 0.673838 -0.248912
lowerneck -7.57405 -5.13111 -9.01675
upperneck 11.9451 -6.86752 8.01233
head 5.42599 -3.26267 3.48458
rclavicle 1.17066e-014 2.43511e-015
rhumerus -38.6277 6.27204 -83.6452
rradius 35.8387
rwrist 22.3837
rhand -4.79248 -55.9264
rfingers 7.12502
rthumb 20.9928 635.19
lclavicle 1.17066e-014 2.43511e-015
lhumerus -39.2733 -3.42891 85.993
lradius 35.9534
lwrist -13.9975
lhand -0.496786 -32.9686
lfingers 7.12502
lthumb 25.1145 -4.6003
rfemur 0.0372462 18.7486 27.9857
rtibia 18.5902
rfoot -16.1233 -29.4761
rtoes 0.263689
lfemur -3.98849 -22.2804 -25.9864
ltibia 23.0824
lfoot -23.036 21.847
ltoes -24.2348
